<?xml version="1.0" encoding="UTF-8"?>
<svg id="Layer_1" data-name="Layer 1" xmlns="http://www.w3.org/2000/svg" viewBox="0 0 51.78 50.46">
  <defs>
    <style>
      .cls-1 {
        stroke-width: 1.78px;
      }

      .cls-1, .cls-2 {
        stroke-linejoin: round;
      }

      .cls-1, .cls-2, .cls-3 {
        fill: none;
        stroke: #190f2b;
      }

      .cls-2, .cls-3 {
        stroke-width: 1.19px;
      }

      .cls-3 {
        stroke-miterlimit: 10;
      }
    </style>
  </defs>
  <path class="cls-1" d="m28.56,29.69c.91,3.92,4.25,6.78,8.5,7.09,2.73.2,5.77-.56,7.57-2.63.21-.24.39-.49.54-.76"/>
  <path class="cls-3" d="m33.1,26.14s3.08-.57,6.6-.07"/>
  <path class="cls-3" d="m35.18,23.14s4.29-2.18,6.16,2.4"/>
  <path class="cls-2" d="m35.18,16.42c-.94-.19-2.27.48-3.02-.34-.79-.87-.4-2.51.88-2.68.91-.12,1.92.14,2.85.14,1.5,0,2.91-.37,4.39-.45.84-.04,2.11,0,2.55.83.21.41.11.92-.18,1.28s-.74.59-1.21.71c-1.37.34-2.93.11-4.33.13"/>
  <path class="cls-1" d="m16.09,1.36s6.65,2,13.45.35C36.7-.02,47,.48,49.96,8.18c.51,1.32.69,2.71.72,4.11.13,5.48-.94,13.36,0,21.3s-1.49,12.13-4.43,13.45"/>
  <path class="cls-1" d="m39.37,48.74c-2.39-.33-4.82-.51-7.24-.58-5.21-.17-10.18.99-15.33,1.34-4.13.28-8.81-.09-12.04-2.82-.13-.11-.25-.21-.37-.33-2.51-2.35-3.2-6.2-3.36-9.39-.2-3.8.46-7.6.46-11.41,0-1.17-.04-2.35-.12-3.52C.7,12.71-.89,4.11,10.23,1.71"/>
  <path class="cls-1" d="m5.93,14.93s1.38,10.1.31,18.71"/>
  <path class="cls-1" d="m6.65,12.66c1.96.24,3.95.37,5.93.35,3.38-.03,7.29-.99,10.39.81,2.86,1.66,4.11,5.79,1.51,8.21"/>
  <path class="cls-1" d="m6.24,36.44c1.34-.25,3.75-.25,5.49-.11,7.08.59,12.87,1.12,14.99-4.7.32-.89.43-1.83.35-2.76-.19-2.3-2.19-4.74-4.94-5.41"/>
  <path class="cls-2" d="m11.53,16.95s.54,3.33.13,5.33"/>
  <path class="cls-2" d="m15.17,16.74c.94-.07,1.94,0,2.84.27,1.04.32,1.97,1.1,2.09,2.16.1.95-.42,1.82-1.26,2.35-.95.6-2.05.57-3.15.59-.73.01-1.51,0-2.23.17"/>
  <path class="cls-2" d="m11.6,26.07s.8,2.6,0,6.36"/>
  <path class="cls-2" d="m17.12,26.14s4.06-.19,4.36,2.78c.11,1.07-.38,2.12-1.28,2.78-1.09.79-2.56.83-3.87.77-1.24-.06-2.35-.1-3.59.13"/>
  <path class="cls-1" d="m28.48,26.32c.8-7.94,12.68-10.03,16.67-3.13.63,1.08,1.04,2.28,1.25,3.49"/>
  <path class="cls-1" d="m33.1,29.19c1.66-.21,8.84-.46,13.2.04"/>
  <path class="cls-2" d="m35.85,33.02s4.29,1.52,6.03-2.15"/>
</svg>