<?xml version="1.0" encoding="UTF-8"?>
<svg id="Layer_1" data-name="Layer 1" xmlns="http://www.w3.org/2000/svg" viewBox="0 0 679.55 486.78">
  <defs>
    <style>
      .cls-1 {
        fill: #325597;
      }

      .cls-2 {
        fill: #190f2b;
      }
    </style>
  </defs>
  <path class="cls-2" d="m404.92,161.2c-10.8-2.31-15.42-3.86-20.82-18.51-5.4-14.65-22.36-29.3-38.55-32.39-16.19-3.08-40.59-6.94-64.25,0-23.66,6.94-38.31,8.48-35.99,17.74s-3.43,17.74-15.98,21.59c0,0-35.68,7.71-26.43,24.67s22.36,16.19,32.39,18.51,19.28,12.34,32.39,19.28c13.11,6.94,31.61,6.17,49.35,8.48s44.72-16.96,61.69-29.3c16.96-12.34,31.61-2.31,34.7-15.42,3.08-13.11,2.31-12.34-8.48-14.65Zm-36.24,17.74c-11.43,3.81-21.03,13.3-31.94,18.47-12.31,5.83-26.4,5.46-39.37,2.23-10.01-2.49-23.86-5.92-30.48-14.53-7.71-10.02-14.65-8.48-14.65-8.48-4.01-.42-11.89-1.85-9.21-7.65,2.16-4.68,6.89-7.97,9.74-12.26,6.03-9.09,11.71-17.73,21.81-22.65,20.79-10.12,45.96-12.63,67.56-3.63,12.43,5.18,29.31,15.63,32.64,29.72,1.08,4.58,7.47,6.8,8.54,11.32,1.5,6.32-10.54,6.09-14.64,7.46Z"/>
  <path class="cls-1" d="m274.6,152.72c3.86-2.31,9.25-6.94,19.28-8.48s22.36-7.71,35.47-2.31,33.16,11.57,23.9,25.45-20.43,16.62-37.2,14.86-28.34-2.53-34.51-7.92-12.93-6.11-11.86-13.08c1.07-6.97,4.92-8.51,4.92-8.51Z"/>
</svg>