<?xml version="1.0" encoding="UTF-8"?>
<svg id="Layer_1" data-name="Layer 1" xmlns="http://www.w3.org/2000/svg" viewBox="0 0 399.1 411.47">
  <defs>
    <style>
      .cls-1 {
        stroke-width: 14.42px;
      }

      .cls-1, .cls-2, .cls-3 {
        fill: none;
        stroke: #190f2b;
        stroke-linejoin: round;
      }

      .cls-2 {
        stroke-width: 14.25px;
      }

      .cls-3 {
        stroke-width: 9.56px;
      }
    </style>
  </defs>
  <circle class="cls-1" cx="202.64" cy="206.35" r="81.39"/>
  <circle class="cls-3" cx="202.73" cy="206.44" r="64.98"/>
  <path class="cls-2" d="m124.15,10.95s51.17,16.28,103.53,2.87C282.76-.28,362.04,3.77,384.84,66.59c3.91,10.76,5.3,22.15,5.56,33.55,1.03,44.68-7.22,109.02,0,173.8,7.22,64.78-11.5,98.96-34.11,109.72"/>
  <path class="cls-2" d="m303.35,397.5c-18.43-2.69-37.11-4.13-55.72-4.76-40.08-1.36-78.37,8.09-118.01,10.95-31.81,2.29-67.85-.73-92.7-22.98-.96-.86-1.9-1.75-2.82-2.66-19.3-19.16-24.6-50.55-25.86-76.62-1.5-31.02,3.52-62.03,3.56-93.06.01-9.58-.3-19.16-.95-28.71C5.69,103.56-6.55,33.42,78.99,13.83"/>
  <path class="cls-3" d="m102.82,46.37c-23.47,3.58-43.75,13.43-53.5,37.41-14.75,36.28,6.49,92.19,0,136.43-6.27,42.69-23.87,125.24,32.92,141.33,24.83,7.04,49.72,3.92,74.95,1.9,35.52-2.85,71.39-4.8,107.01-3.02,24.24,1.05,50.92,3.85,71.44-12.01,23.31-17.9,21.52-49.44,20.45-75.83-1.14-28.46,2.63-56.91,3.94-85.32,1.34-29.01,3.06-59.53-4.23-88.15-8.28-32.51-27.95-49.11-60.95-52.25-34.06-3.24-68.25-.36-102.37-.13-29.83.21-59.97-4.89-89.67-.36Z"/>
  <path class="cls-3" d="m339.8,100.29c-22.87.45-29.73,7.6-29.28,30.47-.45-22.87-7.6-29.73-30.47-29.28,22.87-.45,29.73-7.6,29.28-30.47.45,22.87,7.6,29.73,30.47,29.28Z"/>
</svg>