<?xml version="1.0" encoding="UTF-8"?>
<svg id="Layer_1" data-name="Layer 1" xmlns="http://www.w3.org/2000/svg" viewBox="0 0 14.61 14.41">
  <defs>
    <style>
      .cls-1 {
        fill: #d66b44;
      }
    </style>
  </defs>
  <path class="cls-1" d="m12.96,8.6c.91.15,1.72-.6,1.64-1.53l-.05-.61c-.08-.94-1.04-1.55-1.93-1.21l-3.35,1.28c-.02-.06-.04-.12-.06-.17l3.15-1.96c.79-.49.91-1.58.24-2.23l-.44-.43c-.68-.66-1.8-.49-2.25.35l-1.72,3.2c-.05-.03-.11-.05-.17-.07l.97-3.4c.26-.91-.42-1.82-1.37-1.82h-.61c-.93,0-1.6.87-1.38,1.77l.85,3.45s-.06.02-.09.04l-1.66-3.16c-.44-.84-1.56-1.02-2.24-.37l-.44.42c-.67.64-.56,1.74.22,2.23l3.06,1.94c-.03.07-.06.15-.09.23l-3.27-1.16c-.88-.34-1.85.27-1.93,1.21l-.05.61c-.08.92.73,1.67,1.64,1.53l3.69-.59-3.14,1.54c-.83.41-1.06,1.49-.46,2.19l.4.47c.61.72,1.74.66,2.27-.12l2.08-3.09s.02,0,.03,0l-.86,3.49c-.22.9.46,1.77,1.38,1.77h.61c.95,0,1.63-.91,1.37-1.82l-.98-3.44s.08-.03.12-.05l2.11,3.12c.53.78,1.66.84,2.27.12l.39-.47c.59-.71.37-1.79-.47-2.19l-3.27-1.6s.03-.06.04-.09l3.75.6Z"/>
</svg>